  0
SECTION
  2
HEADER
  9
$ACADVER
  1
AC1009
  9
$EXTMIN
 10
880.097865
 20
-3731.469911
 30
0.0
  9
$EXTMAX
 10
2471.077595
 20
-2687.398763
 30
0.0
  9
$LIMMIN
 10
800.548878
 20
-3783.673468
  9
$LIMMAX
 10
2550.626582
 20
-2635.195206
  0
ENDSEC
  0
SECTION
  2
TABLES
  0
TABLE
  2
LTYPE
 70
     3
  0
LTYPE
  2
CONTINUOUS
 70
     0
  3
Solid Line
 72
    65
 73
     0
 40
0.0
  0
LTYPE
  2
DASHED
 70
     0
  3
_ _ _ _ _
 72
    65
 73
     2
 40
0.75
 49
0.5
 49
-0.25
  0
LTYPE
  2
DOT
 70
     0
  3
. . . . .
 72
    65
 73
     2
 40
1.0
 49
0.0
 49
-1.0
  0
ENDTAB
  0
ENDSEC
  0
SECTION
  2
BLOCKS
  0
ENDSEC
  0
SECTION
  2
ENTITIES
  0
POINT
  8
0
 62
     7
 10
1474.581412
 20
-3015.533063
 30
0.0
  0
POINT
  8
0
 62
     7
 10
1441.323993
 20
-3000.997889
 30
0.0
  0
POINT
  8
0
 62
     7
 10
1510.528887
 20
-3326.795942
 30
0.0
  0
POINT
  8
0
 62
     7
 10
1272.526668
 20
-2687.398763
 30
0.0
  0
POINT
  8
0
 62
     7
 10
1740.866641
 20
-2857.404680
 30
0.0
  0
POINT
  8
0
 62
     7
 10
1086.648188
 20
-3415.168830
 30
0.0
  0
POINT
  8
0
 62
     7
 10
1138.952607
 20
-3508.685626
 30
0.0
  0
POINT
  8
0
 62
     7
 10
1186.178898
 20
-3593.123159
 30
0.0
  0
POINT
  8
0
 62
     7
 10
1145.890301
 20
-3521.089821
 30
0.0
  0
POINT
  8
0
 62
     7
 10
1152.469512
 20
-3532.853024
 30
0.0
  0
POINT
  8
0
 62
     7
 10
1165.011065
 20
-3555.276327
 30
0.0
  0
POINT
  8
0
 62
     7
 10
1829.454952
 20
-2824.805415
 30
0.0
  0
POINT
  8
0
 62
     7
 10
1741.023763
 20
-2858.111676
 30
0.0
  0
POINT
  8
0
 62
     7
 10
1700.978204
 20
-3315.701483
 30
0.0
  0
POINT
  8
0
 62
     7
 10
1652.206484
 20
-3318.542617
 30
0.0
  0
POINT
  8
0
 62
     7
 10
959.761639
 20
-3550.518533
 30
0.0
  0
POINT
  8
0
 62
     7
 10
2074.470655
 20
-3376.224958
 30
0.0
  0
POINT
  8
0
 62
     7
 10
1179.356968
 20
-3544.915077
 30
0.0
  0
POINT
  8
0
 62
     7
 10
1134.713923
 20
-3632.745337
 30
0.0
  0
POINT
  8
0
 62
     7
 10
1848.880368
 20
-2979.036610
 30
0.0
  0
POINT
  8
0
 62
     7
 10
965.637850
 20
-3552.516566
 30
0.0
  0
POINT
  8
0
 62
     7
 10
1825.252831
 20
-3497.876954
 30
0.0
  0
POINT
  8
0
 62
     7
 10
1825.517616
 20
-3496.806811
 30
0.0
  0
POINT
  8
0
 62
     7
 10
1786.172499
 20
-2834.375222
 30
0.0
  0
POINT
  8
0
 62
     7
 10
1148.701131
 20
-3604.770065
 30
0.0
  0
POINT
  8
0
 62
     7
 10
1148.230083
 20
-3630.043211
 30
0.0
  0
POINT
  8
0
 62
     7
 10
1133.720342
 20
-3678.850276
 30
0.0
  0
POINT
  8
0
 62
     7
 10
1256.982840
 20
-3729.743235
 30
0.0
  0
POINT
  8
0
 62
     7
 10
1255.521835
 20
-3731.469911
 30
0.0
  0
POINT
  8
0
 62
     7
 10
1954.444199
 20
-2971.340257
 30
0.0
  0
POINT
  8
0
 62
     7
 10
1820.444072
 20
-3480.092929
 30
0.0
  0
POINT
  8
0
 62
     7
 10
1815.900418
 20
-3523.006737
 30
0.0
  0
POINT
  8
0
 62
     7
 10
1084.968661
 20
-3593.090285
 30
0.0
  0
POINT
  8
0
 62
     7
 10
2212.609051
 20
-2957.250287
 30
0.0
  0
POINT
  8
0
 62
     7
 10
2240.338188
 20
-2962.560271
 30
0.0
  0
POINT
  8
0
 62
     7
 10
1916.947457
 20
-2949.892490
 30
0.0
  0
POINT
  8
0
 62
     7
 10
1974.944102
 20
-2952.528270
 30
0.0
  0
POINT
  8
0
 62
     7
 10
1953.997881
 20
-2872.141364
 30
0.0
  0
POINT
  8
0
 62
     7
 10
1937.984071
 20
-2925.903464
 30
0.0
  0
POINT
  8
0
 62
     7
 10
932.940700
 20
-3536.367084
 30
0.0
  0
POINT
  8
0
 62
     7
 10
880.097865
 20
-3493.685099
 30
0.0
  0
POINT
  8
0
 62
     7
 10
2428.288149
 20
-3377.890156
 30
0.0
  0
POINT
  8
0
 62
     7
 10
1852.067162
 20
-2953.372994
 30
0.0
  0
POINT
  8
0
 62
     7
 10
1896.376241
 20
-2964.450632
 30
0.0
  0
POINT
  8
0
 62
     7
 10
1859.935226
 20
-2926.395970
 30
0.0
  0
POINT
  8
0
 62
     7
 10
1958.178576
 20
-2907.905034
 30
0.0
  0
POINT
  8
0
 62
     7
 10
1973.917369
 20
-2909.404071
 30
0.0
  0
POINT
  8
0
 62
     7
 10
1119.253026
 20
-3567.580449
 30
0.0
  0
POINT
  8
0
 62
     7
 10
2468.634202
 20
-3522.872510
 30
0.0
  0
POINT
  8
0
 62
     7
 10
1136.683604
 20
-3570.331244
 30
0.0
  0
POINT
  8
0
 62
     7
 10
1938.025963
 20
-2880.514145
 30
0.0
  0
POINT
  8
0
 62
     7
 10
2239.178957
 20
-2856.394051
 30
0.0
  0
POINT
  8
0
 62
     7
 10
2249.115196
 20
-2859.477767
 30
0.0
  0
POINT
  8
0
 62
     7
 10
1117.584372
 20
-3569.762659
 30
0.0
  0
POINT
  8
0
 62
     7
 10
2471.077595
 20
-3523.620492
 30
0.0
  0
POINT
  8
0
 62
     7
 10
2426.570781
 20
-3370.447656
 30
0.0
  0
POINT
  8
0
 62
     7
 10
2239.156145
 20
-2856.440757
 30
0.0
  0
POINT
  8
0
 62
     7
 10
2249.209854
 20
-2858.626468
 30
0.0
  0
POINT
  8
0
 62
     7
 10
2249.227975
 20
-2858.462612
 30
0.0
  0
POINT
  8
0
 62
     7
 10
1561.287131
 20
-3335.810313
 30
0.0
  0
ENDSEC
  0
EOF
