  0
SECTION
  2
HEADER
  9
$ACADVER
  1
AC1009
  9
$EXTMIN
 10
989.106260
 20
-2040.008740
 30
0.0
  9
$EXTMAX
 10
1369.62504
 20
-1535.738930
 30
0.0
  9
$LIMMIN
 10
970.080321
 20
-2065.222231
  9
$LIMMAX
 10
1388.650979
 20
-1510.525439
  0
ENDSEC
  0
SECTION
  2
TABLES
  0
TABLE
  2
LTYPE
 70
     3
  0
LTYPE
  2
CONTINUOUS
 70
     0
  3
Solid Line
 72
    65
 73
     0
 40
0.0
  0
LTYPE
  2
DASHED
 70
     0
  3
_ _ _ _ _
 72
    65
 73
     2
 40
0.75
 49
0.5
 49
-0.25
  0
LTYPE
  2
DOT
 70
     0
  3
. . . . .
 72
    65
 73
     2
 40
1.0
 49
0.0
 49
-1.0
  0
ENDTAB
  0
ENDSEC
  0
SECTION
  2
BLOCKS
  0
ENDSEC
  0
SECTION
  2
ENTITIES
  0
POINT
  8
0
 62
     7
 10
1017.24673
 20
-1669.213490
 30
0.0
  0
POINT
  8
0
 62
     7
 10
1084.49857
 20
-1639.30312
 30
0.0
  0
POINT
  8
0
 62
     7
 10
1144.72148
 20
-1612.518900
 30
0.0
  0
POINT
  8
0
 62
     7
 10
1209.915270
 20
-1583.523860
 30
0.0
  0
POINT
  8
0
 62
     7
 10
1244.62751
 20
-1568.085560
 30
0.0
  0
POINT
  8
0
 62
     7
 10
1278.47067
 20
-1553.0338
 30
0.0
  0
POINT
  8
0
 62
     7
 10
1301.36472
 20
-1542.8516
 30
0.0
  0
POINT
  8
0
 62
     7
 10
1024.08859
 20
-1698.995530
 30
0.0
  0
POINT
  8
0
 62
     7
 10
1088.844710
 20
-1670.27757
 30
0.0
  0
POINT
  8
0
 62
     7
 10
1165.940800
 20
-1636.087140
 30
0.0
  0
POINT
  8
0
 62
     7
 10
1279.500710
 20
-1622.523570
 30
0.0
  0
POINT
  8
0
 62
     7
 10
1208.98213
 20
-1674.748550
 30
0.0
  0
POINT
  8
0
 62
     7
 10
1289.431830
 20
-1653.47258
 30
0.0
  0
POINT
  8
0
 62
     7
 10
1173.129630
 20
-1710.019120
 30
0.0
  0
POINT
  8
0
 62
     7
 10
1217.079910
 20
-1700.946770
 30
0.0
  0
POINT
  8
0
 62
     7
 10
1299.264780
 20
-1683.98202
 30
0.0
  0
POINT
  8
0
 62
     7
 10
1013.7167
 20
-1752.18016
 30
0.0
  0
POINT
  8
0
 62
     7
 10
1103.99754
 20
-1752.5796
 30
0.0
  0
POINT
  8
0
 62
     7
 10
1138.75732
 20
-1752.733470
 30
0.0
  0
POINT
  8
0
 62
     7
 10
1170.127670
 20
-1752.872220
 30
0.0
  0
POINT
  8
0
 62
     7
 10
1202.42018
 20
-1747.542590
 30
0.0
  0
POINT
  8
0
 62
     7
 10
1238.933370
 20
-1738.01736
 30
0.0
  0
POINT
  8
0
 62
     7
 10
1302.27729
 20
-1721.492860
 30
0.0
  0
POINT
  8
0
 62
     7
 10
1278.75827
 20
-1766.49154
 30
0.0
  0
POINT
  8
0
 62
     7
 10
1314.347050
 20
-1757.481780
 30
0.0
  0
POINT
  8
0
 62
     7
 10
1348.18073
 20
-1748.916280
 30
0.0
  0
POINT
  8
0
 62
     7
 10
1156.026940
 20
-1795.59246
 30
0.0
  0
POINT
  8
0
 62
     7
 10
1225.157640
 20
-1796.50207
 30
0.0
  0
POINT
  8
0
 62
     7
 10
1041.83853
 20
-1874.225110
 30
0.0
  0
POINT
  8
0
 62
     7
 10
1092.115070
 20
-1872.56768
 30
0.0
  0
POINT
  8
0
 62
     7
 10
1135.631820
 20
-1871.13302
 30
0.0
  0
POINT
  8
0
 62
     7
 10
1163.039890
 20
-1870.229470
 30
0.0
  0
POINT
  8
0
 62
     7
 10
1184.38627
 20
-1869.525720
 30
0.0
  0
POINT
  8
0
 62
     7
 10
1220.17652
 20
-1867.352900
 30
0.0
  0
POINT
  8
0
 62
     7
 10
1202.75426
 20
-1868.92016
 30
0.0
  0
POINT
  8
0
 62
     7
 10
1256.80749
 20
-1862.77408
 30
0.0
  0
POINT
  8
0
 62
     7
 10
1287.26495
 20
-1858.966880
 30
0.0
  0
POINT
  8
0
 62
     7
 10
1334.005700
 20
-1853.12426
 30
0.0
  0
POINT
  8
0
 62
     7
 10
1258.4108
 20
-1929.074170
 30
0.0
  0
POINT
  8
0
 62
     7
 10
1287.76073
 20
-1926.528130
 30
0.0
  0
POINT
  8
0
 62
     7
 10
1322.81877
 20
-1926.371280
 30
0.0
  0
POINT
  8
0
 62
     7
 10
1345.49248
 20
-1935.29215
 30
0.0
  0
POINT
  8
0
 62
     7
 10
1286.29002
 20
-1938.890830
 30
0.0
  0
POINT
  8
0
 62
     7
 10
1321.83702
 20
-1938.515390
 30
0.0
  0
POINT
  8
0
 62
     7
 10
1089.6397
 20
-1938.64765
 30
0.0
  0
POINT
  8
0
 62
     7
 10
1047.617100
 20
-1970.04809
 30
0.0
  0
POINT
  8
0
 62
     7
 10
1092.947270
 20
-1973.12609
 30
0.0
  0
POINT
  8
0
 62
     7
 10
1152.93715
 20
-1982.55117
 30
0.0
  0
POINT
  8
0
 62
     7
 10
1190.43592
 20
-2001.424720
 30
0.0
  0
POINT
  8
0
 62
     7
 10
1241.369940
 20
-2027.060410
 30
0.0
  0
POINT
  8
0
 62
     7
 10
1289.61028
 20
-2033.147320
 30
0.0
  0
POINT
  8
0
 62
     7
 10
1325.31397
 20
-2022.266240
 30
0.0
  0
POINT
  8
0
 62
     7
 10
990.33167
 20
-1690.136140
 30
0.0
  0
POINT
  8
0
 62
     7
 10
997.27277
 20
-1737.75471
 30
0.0
  0
POINT
  8
0
 62
     7
 10
1009.04577
 20
-1818.52295
 30
0.0
  0
POINT
  8
0
 62
     7
 10
1014.39177
 20
-1855.1994
 30
0.0
  0
POINT
  8
0
 62
     7
 10
1019.57457
 20
-1890.755750
 30
0.0
  0
POINT
  8
0
 62
     7
 10
1023.393270
 20
-1916.9538
 30
0.0
  0
POINT
  8
0
 62
     7
 10
1053.288760
 20
-1678.105250
 30
0.0
  0
POINT
  8
0
 62
     7
 10
1056.72285
 20
-1697.65301
 30
0.0
  0
POINT
  8
0
 62
     7
 10
1046.591120
 20
-1727.54519
 30
0.0
  0
POINT
  8
0
 62
     7
 10
1069.61148
 20
-1724.94049
 30
0.0
  0
POINT
  8
0
 62
     7
 10
1041.222620
 20
-1788.06483
 30
0.0
  0
POINT
  8
0
 62
     7
 10
1079.392300
 20
-1787.38131
 30
0.0
  0
POINT
  8
0
 62
     7
 10
1065.75953
 20
-1848.19254
 30
0.0
  0
POINT
  8
0
 62
     7
 10
1067.236200
 20
-1906.887220
 30
0.0
  0
POINT
  8
0
 62
     7
 10
1068.46472
 20
-1955.72271
 30
0.0
  0
POINT
  8
0
 62
     7
 10
1119.640400
 20
-1640.14699
 30
0.0
  0
POINT
  8
0
 62
     7
 10
1119.137690
 20
-1704.66123
 30
0.0
  0
POINT
  8
0
 62
     7
 10
1118.59842
 20
-1773.87137
 30
0.0
  0
POINT
  8
0
 62
     7
 10
1118.13451
 20
-1833.408720
 30
0.0
  0
POINT
  8
0
 62
     7
 10
1117.58373
 20
-1904.08476
 30
0.0
  0
POINT
  8
0
 62
     7
 10
1156.037070
 20
-1733.464750
 30
0.0
  0
POINT
  8
0
 62
     7
 10
1189.71554
 20
-1693.34264
 30
0.0
  0
POINT
  8
0
 62
     7
 10
1187.57275
 20
-1774.54037
 30
0.0
  0
POINT
  8
0
 62
     7
 10
1156.49245
 20
-1849.7732
 30
0.0
  0
POINT
  8
0
 62
     7
 10
1152.53422
 20
-1876.60131
 30
0.0
  0
POINT
  8
0
 62
     7
 10
1193.39929
 20
-1849.069450
 30
0.0
  0
POINT
  8
0
 62
     7
 10
1169.22576
 20
-1981.37352
 30
0.0
  0
POINT
  8
0
 62
     7
 10
1207.257190
 20
-1601.23838
 30
0.0
  0
POINT
  8
0
 62
     7
 10
1217.22498
 20
-1629.03596
 30
0.0
  0
POINT
  8
0
 62
     7
 10
1226.78153
 20
-1655.68656
 30
0.0
  0
POINT
  8
0
 62
     7
 10
1236.353530
 20
-1682.380350
 30
0.0
  0
POINT
  8
0
 62
     7
 10
1248.021210
 20
-1714.91823
 30
0.0
  0
POINT
  8
0
 62
     7
 10
1260.74973
 20
-1750.414810
 30
0.0
  0
POINT
  8
0
 62
     7
 10
1261.215870
 20
-1783.35254
 30
0.0
  0
POINT
  8
0
 62
     7
 10
1249.6113
 20
-1818.16604
 30
0.0
  0
POINT
  8
0
 62
     7
 10
1239.928760
 20
-1847.21384
 30
0.0
  0
POINT
  8
0
 62
     7
 10
1224.294110
 20
-1930.49004
 30
0.0
  0
POINT
  8
0
 62
     7
 10
1244.251970
 20
-1896.747800
 30
0.0
  0
POINT
  8
0
 62
     7
 10
1257.445360
 20
-1976.28494
 30
0.0
  0
POINT
  8
0
 62
     7
 10
1297.47365
 20
-1767.437360
 30
0.0
  0
POINT
  8
0
 62
     7
 10
1296.541570
 20
-1825.90551
 30
0.0
  0
POINT
  8
0
 62
     7
 10
1311.426750
 20
-1823.3593
 30
0.0
  0
POINT
  8
0
 62
     7
 10
1310.224340
 20
-1848.039440
 30
0.0
  0
POINT
  8
0
 62
     7
 10
1333.062000
 20
-1770.341
 30
0.0
  0
POINT
  8
0
 62
     7
 10
1354.56242
 20
-1786.841070
 30
0.0
  0
POINT
  8
0
 62
     7
 10
1306.58985
 20
-1888.57192
 30
0.0
  0
POINT
  8
0
 62
     7
 10
1307.004930
 20
-1986.744470
 30
0.0
  0
POINT
  8
0
 62
     7
 10
1327.139320
 20
-1569.10541
 30
0.0
  0
POINT
  8
0
 62
     7
 10
1341.72154
 20
-1618.84463
 30
0.0
  0
POINT
  8
0
 62
     7
 10
1352.34309
 20
-1655.07425
 30
0.0
  0
POINT
  8
0
 62
     7
 10
1361.61929
 20
-1686.71515
 30
0.0
  0
POINT
  8
0
 62
     7
 10
1367.991700
 20
-1729.168380
 30
0.0
  0
POINT
  8
0
 62
     7
 10
1363.89532
 20
-1767.15217
 30
0.0
  0
POINT
  8
0
 62
     7
 10
1358.16899
 20
-1820.25082
 30
0.0
  0
POINT
  8
0
 62
     7
 10
1353.316100
 20
-1894.41352
 30
0.0
  0
POINT
  8
0
 62
     7
 10
1353.57715
 20
-1969.07905
 30
0.0
  0
POINT
  8
0
 62
     7
 10
1353.42024
 20
-1924.178820
 30
0.0
  0
ENDSEC
  0
EOF
