  0
SECTION
  2
HEADER
  9
$ACADVER
  1
AC1009
  9
$EXTMIN
 10
-647.260043
 20
-4561.447105
 30
0.0
  9
$EXTMAX
 10
-191.015839
 20
-3846.980433
 30
0.0
  9
$LIMMIN
 10
-670.072253
 20
-4597.170438
  9
$LIMMAX
 10
-168.203628
 20
-3811.257099
  0
ENDSEC
  0
SECTION
  2
TABLES
  0
TABLE
  2
LTYPE
 70
     3
  0
LTYPE
  2
CONTINUOUS
 70
     0
  3
Solid Line
 72
    65
 73
     0
 40
0.0
  0
LTYPE
  2
DASHED
 70
     0
  3
_ _ _ _ _
 72
    65
 73
     2
 40
0.75
 49
0.5
 49
-0.25
  0
LTYPE
  2
DOT
 70
     0
  3
. . . . .
 72
    65
 73
     2
 40
1.0
 49
0.0
 49
-1.0
  0
ENDTAB
  0
ENDSEC
  0
SECTION
  2
BLOCKS
  0
ENDSEC
  0
SECTION
  2
ENTITIES
  0
POINT
  8
0
 62
     7
 10
-351.815158
 20
-3890.560423
 30
0.0
  0
POINT
  8
0
 62
     7
 10
-347.939434
 20
-3923.316798
 30
0.0
  0
POINT
  8
0
 62
     7
 10
-302.198771
 20
-3897.562758
 30
0.0
  0
POINT
  8
0
 62
     7
 10
-266.394027
 20
-3876.760594
 30
0.0
  0
POINT
  8
0
 62
     7
 10
-282.669744
 20
-3923.319189
 30
0.0
  0
POINT
  8
0
 62
     7
 10
-289.924561
 20
-3965.673035
 30
0.0
  0
POINT
  8
0
 62
     7
 10
-334.448751
 20
-3972.629604
 30
0.0
  0
POINT
  8
0
 62
     7
 10
-429.927535
 20
-3959.070990
 30
0.0
  0
POINT
  8
0
 62
     7
 10
-382.696872
 20
-3971.136288
 30
0.0
  0
POINT
  8
0
 62
     7
 10
-325.898899
 20
-4006.364844
 30
0.0
  0
POINT
  8
0
 62
     7
 10
-283.911374
 20
-4023.800409
 30
0.0
  0
POINT
  8
0
 62
     7
 10
-269.562594
 20
-4044.912439
 30
0.0
  0
POINT
  8
0
 62
     7
 10
-334.070655
 20
-4080.347202
 30
0.0
  0
POINT
  8
0
 62
     7
 10
-369.346470
 20
-4049.986843
 30
0.0
  0
POINT
  8
0
 62
     7
 10
-432.610556
 20
-4038.168055
 30
0.0
  0
POINT
  8
0
 62
     7
 10
-192.968890
 20
-4238.100911
 30
0.0
  0
POINT
  8
0
 62
     7
 10
-221.185704
 20
-4289.746804
 30
0.0
  0
POINT
  8
0
 62
     7
 10
-220.970700
 20
-4238.942902
 30
0.0
  0
POINT
  8
0
 62
     7
 10
-247.293197
 20
-4279.132555
 30
0.0
  0
POINT
  8
0
 62
     7
 10
-271.423760
 20
-4262.990247
 30
0.0
  0
POINT
  8
0
 62
     7
 10
-240.888270
 20
-4249.185124
 30
0.0
  0
POINT
  8
0
 62
     7
 10
-234.657307
 20
-4225.240242
 30
0.0
  0
POINT
  8
0
 62
     7
 10
-270.367393
 20
-4201.209633
 30
0.0
  0
POINT
  8
0
 62
     7
 10
-242.176056
 20
-4130.465966
 30
0.0
  0
POINT
  8
0
 62
     7
 10
-215.746644
 20
-4126.006853
 30
0.0
  0
POINT
  8
0
 62
     7
 10
-271.068262
 20
-4098.280482
 30
0.0
  0
POINT
  8
0
 62
     7
 10
-298.477185
 20
-4151.238331
 30
0.0
  0
POINT
  8
0
 62
     7
 10
-315.800527
 20
-4113.422408
 30
0.0
  0
POINT
  8
0
 62
     7
 10
-304.693757
 20
-4173.897384
 30
0.0
  0
POINT
  8
0
 62
     7
 10
-505.330987
 20
-4025.205606
 30
0.0
  0
POINT
  8
0
 62
     7
 10
-474.138972
 20
-4037.384809
 30
0.0
  0
POINT
  8
0
 62
     7
 10
-506.222556
 20
-4070.241086
 30
0.0
  0
POINT
  8
0
 62
     7
 10
-511.768213
 20
-4093.161762
 30
0.0
  0
POINT
  8
0
 62
     7
 10
-533.994651
 20
-4144.964253
 30
0.0
  0
POINT
  8
0
 62
     7
 10
-517.995657
 20
-4135.426124
 30
0.0
  0
POINT
  8
0
 62
     7
 10
-496.717710
 20
-4205.317639
 30
0.0
  0
POINT
  8
0
 62
     7
 10
-444.093503
 20
-4211.051394
 30
0.0
  0
POINT
  8
0
 62
     7
 10
-430.247536
 20
-4181.236567
 30
0.0
  0
POINT
  8
0
 62
     7
 10
-411.186146
 20
-4169.416583
 30
0.0
  0
POINT
  8
0
 62
     7
 10
-427.900825
 20
-4126.249093
 30
0.0
  0
POINT
  8
0
 62
     7
 10
-386.539765
 20
-4106.376014
 30
0.0
  0
POINT
  8
0
 62
     7
 10
-361.779966
 20
-4158.018747
 30
0.0
  0
POINT
  8
0
 62
     7
 10
-375.719418
 20
-4206.061010
 30
0.0
  0
POINT
  8
0
 62
     7
 10
-247.568854
 20
-4326.137378
 30
0.0
  0
POINT
  8
0
 62
     7
 10
-272.068452
 20
-4324.522216
 30
0.0
  0
POINT
  8
0
 62
     7
 10
-255.544580
 20
-4354.090619
 30
0.0
  0
POINT
  8
0
 62
     7
 10
-280.044178
 20
-4352.475458
 30
0.0
  0
POINT
  8
0
 62
     7
 10
-317.541986
 20
-4354.358817
 30
0.0
  0
POINT
  8
0
 62
     7
 10
-320.984504
 20
-4338.714565
 30
0.0
  0
POINT
  8
0
 62
     7
 10
-364.570436
 20
-4337.999713
 30
0.0
  0
POINT
  8
0
 62
     7
 10
-393.502082
 20
-4280.461076
 30
0.0
  0
POINT
  8
0
 62
     7
 10
-387.226350
 20
-4244.283540
 30
0.0
  0
POINT
  8
0
 62
     7
 10
-414.661388
 20
-4241.950026
 30
0.0
  0
POINT
  8
0
 62
     7
 10
-422.407507
 20
-4227.203437
 30
0.0
  0
POINT
  8
0
 62
     7
 10
-351.192958
 20
-4235.741439
 30
0.0
  0
POINT
  8
0
 62
     7
 10
-327.911219
 20
-4227.401533
 30
0.0
  0
POINT
  8
0
 62
     7
 10
-325.232568
 20
-4271.266455
 30
0.0
  0
POINT
  8
0
 62
     7
 10
-289.054738
 20
-4278.293552
 30
0.0
  0
POINT
  8
0
 62
     7
 10
-359.920931
 20
-4431.155839
 30
0.0
  0
POINT
  8
0
 62
     7
 10
-434.889578
 20
-4439.598209
 30
0.0
  0
POINT
  8
0
 62
     7
 10
-451.902300
 20
-4446.201023
 30
0.0
  0
POINT
  8
0
 62
     7
 10
-432.321468
 20
-4396.679448
 30
0.0
  0
POINT
  8
0
 62
     7
 10
-468.522748
 20
-4384.105591
 30
0.0
  0
POINT
  8
0
 62
     7
 10
-500.602282
 20
-4319.194727
 30
0.0
  0
POINT
  8
0
 62
     7
 10
-520.524967
 20
-4272.408237
 30
0.0
  0
POINT
  8
0
 62
     7
 10
-484.907726
 20
-4296.153827
 30
0.0
  0
POINT
  8
0
 62
     7
 10
-498.700502
 20
-4233.721292
 30
0.0
  0
POINT
  8
0
 62
     7
 10
-480.574492
 20
-4269.022255
 30
0.0
  0
POINT
  8
0
 62
     7
 10
-467.355629
 20
-4263.979956
 30
0.0
  0
POINT
  8
0
 62
     7
 10
-459.898706
 20
-4332.875272
 30
0.0
  0
POINT
  8
0
 62
     7
 10
-400.032153
 20
-4332.386010
 30
0.0
  0
POINT
  8
0
 62
     7
 10
-392.089366
 20
-4371.954480
 30
0.0
  0
POINT
  8
0
 62
     7
 10
-376.844539
 20
-4368.198094
 30
0.0
  0
POINT
  8
0
 62
     7
 10
-598.456557
 20
-4308.663986
 30
0.0
  0
POINT
  8
0
 62
     7
 10
-556.478839
 20
-4311.783820
 30
0.0
  0
POINT
  8
0
 62
     7
 10
-557.268822
 20
-4387.137477
 30
0.0
  0
POINT
  8
0
 62
     7
 10
-598.487470
 20
-4375.698230
 30
0.0
  0
POINT
  8
0
 62
     7
 10
-579.471170
 20
-4414.337956
 30
0.0
  0
POINT
  8
0
 62
     7
 10
-525.596165
 20
-4445.028246
 30
0.0
  0
POINT
  8
0
 62
     7
 10
-495.315120
 20
-4404.238927
 30
0.0
  0
POINT
  8
0
 62
     7
 10
-497.139724
 20
-4454.953686
 30
0.0
  0
POINT
  8
0
 62
     7
 10
-466.423447
 20
-4487.545095
 30
0.0
  0
POINT
  8
0
 62
     7
 10
-471.538989
 20
-4513.568015
 30
0.0
  0
POINT
  8
0
 62
     7
 10
-526.779488
 20
-4516.515028
 30
0.0
  0
POINT
  8
0
 62
     7
 10
-529.970013
 20
-4484.835370
 30
0.0
  0
POINT
  8
0
 62
     7
 10
-550.472794
 20
-4529.430429
 30
0.0
  0
POINT
  8
0
 62
     7
 10
-622.688919
 20
-4389.581737
 30
0.0
  0
ENDSEC
  0
EOF
