  0
SECTION
  2
HEADER
  9
$ACADVER
  1
AC1009
  9
$EXTMIN
 10
985.646666
 20
-2837.943161
 30
0.0
  9
$EXTMAX
 10
1306.196614
 20
-2418.375654
 30
0.0
  9
$LIMMIN
 10
969.619168
 20
-2858.921537
  9
$LIMMAX
 10
1322.224111
 20
-2397.397279
  0
ENDSEC
  0
SECTION
  2
TABLES
  0
TABLE
  2
LTYPE
 70
     3
  0
LTYPE
  2
CONTINUOUS
 70
     0
  3
Solid Line
 72
    65
 73
     0
 40
0.0
  0
LTYPE
  2
DASHED
 70
     0
  3
_ _ _ _ _
 72
    65
 73
     2
 40
0.75
 49
0.5
 49
-0.25
  0
LTYPE
  2
DOT
 70
     0
  3
. . . . .
 72
    65
 73
     2
 40
1.0
 49
0.0
 49
-1.0
  0
ENDTAB
  0
ENDSEC
  0
SECTION
  2
BLOCKS
  0
ENDSEC
  0
SECTION
  2
ENTITIES
  0
POINT
  8
0
 62
     7
 10
1019.648231
 20
-2474.421402
 30
0.0
  0
POINT
  8
0
 62
     7
 10
1041.933298
 20
-2473.332902
 30
0.0
  0
POINT
  8
0
 62
     7
 10
1078.885547
 20
-2458.351757
 30
0.0
  0
POINT
  8
0
 62
     7
 10
1067.053178
 20
-2481.294292
 30
0.0
  0
POINT
  8
0
 62
     7
 10
1079.653785
 20
-2494.841379
 30
0.0
  0
POINT
  8
0
 62
     7
 10
1030.911911
 20
-2494.491723
 30
0.0
  0
POINT
  8
0
 62
     7
 10
1010.084758
 20
-2517.258705
 30
0.0
  0
POINT
  8
0
 62
     7
 10
1046.254167
 20
-2521.829674
 30
0.0
  0
POINT
  8
0
 62
     7
 10
1040.934173
 20
-2541.494155
 30
0.0
  0
POINT
  8
0
 62
     7
 10
1070.087753
 20
-2564.298108
 30
0.0
  0
POINT
  8
0
 62
     7
 10
1120.132017
 20
-2609.544833
 30
0.0
  0
POINT
  8
0
 62
     7
 10
1142.907212
 20
-2589.166354
 30
0.0
  0
POINT
  8
0
 62
     7
 10
1165.726217
 20
-2603.348627
 30
0.0
  0
POINT
  8
0
 62
     7
 10
1139.798872
 20
-2636.190900
 30
0.0
  0
POINT
  8
0
 62
     7
 10
1114.209330
 20
-2638.335284
 30
0.0
  0
POINT
  8
0
 62
     7
 10
1107.273661
 20
-2660.083184
 30
0.0
  0
POINT
  8
0
 62
     7
 10
1134.695802
 20
-2671.487082
 30
0.0
  0
POINT
  8
0
 62
     7
 10
1240.404390
 20
-2564.124177
 30
0.0
  0
POINT
  8
0
 62
     7
 10
1233.544405
 20
-2526.784709
 30
0.0
  0
POINT
  8
0
 62
     7
 10
1210.791488
 20
-2516.428326
 30
0.0
  0
POINT
  8
0
 62
     7
 10
1195.043848
 20
-2525.091931
 30
0.0
  0
POINT
  8
0
 62
     7
 10
1199.638669
 20
-2560.391443
 30
0.0
  0
POINT
  8
0
 62
     7
 10
1190.730334
 20
-2613.227531
 30
0.0
  0
POINT
  8
0
 62
     7
 10
1166.472496
 20
-2556.148527
 30
0.0
  0
POINT
  8
0
 62
     7
 10
1170.591685
 20
-2524.756791
 30
0.0
  0
POINT
  8
0
 62
     7
 10
1145.438014
 20
-2526.083006
 30
0.0
  0
POINT
  8
0
 62
     7
 10
1115.907084
 20
-2497.737672
 30
0.0
  0
POINT
  8
0
 62
     7
 10
1112.032320
 20
-2488.050460
 30
0.0
  0
POINT
  8
0
 62
     7
 10
1103.963642
 20
-2467.878188
 30
0.0
  0
POINT
  8
0
 62
     7
 10
1111.103975
 20
-2445.289919
 30
0.0
  0
POINT
  8
0
 62
     7
 10
1123.453122
 20
-2429.011420
 30
0.0
  0
POINT
  8
0
 62
     7
 10
1127.150830
 20
-2454.074602
 30
0.0
  0
POINT
  8
0
 62
     7
 10
1150.037525
 20
-2463.782648
 30
0.0
  0
POINT
  8
0
 62
     7
 10
1157.402882
 20
-2492.702118
 30
0.0
  0
POINT
  8
0
 62
     7
 10
1294.914174
 20
-2629.128880
 30
0.0
  0
POINT
  8
0
 62
     7
 10
1298.616679
 20
-2605.928821
 30
0.0
  0
POINT
  8
0
 62
     7
 10
1292.993527
 20
-2607.682906
 30
0.0
  0
POINT
  8
0
 62
     7
 10
1248.004898
 20
-2577.953550
 30
0.0
  0
POINT
  8
0
 62
     7
 10
1269.128068
 20
-2700.635642
 30
0.0
  0
POINT
  8
0
 62
     7
 10
1240.181924
 20
-2733.326014
 30
0.0
  0
POINT
  8
0
 62
     7
 10
1243.153288
 20
-2762.077102
 30
0.0
  0
POINT
  8
0
 62
     7
 10
1233.368734
 20
-2788.405107
 30
0.0
  0
POINT
  8
0
 62
     7
 10
1214.936367
 20
-2823.149439
 30
0.0
  0
POINT
  8
0
 62
     7
 10
1196.091793
 20
-2804.934044
 30
0.0
  0
POINT
  8
0
 62
     7
 10
1189.420803
 20
-2764.995852
 30
0.0
  0
POINT
  8
0
 62
     7
 10
1174.251339
 20
-2758.389623
 30
0.0
  0
POINT
  8
0
 62
     7
 10
1167.621281
 20
-2724.768287
 30
0.0
  0
POINT
  8
0
 62
     7
 10
1170.578041
 20
-2677.951229
 30
0.0
  0
POINT
  8
0
 62
     7
 10
1200.310543
 20
-2690.928279
 30
0.0
  0
POINT
  8
0
 62
     7
 10
1191.420011
 20
-2721.140578
 30
0.0
  0
POINT
  8
0
 62
     7
 10
1204.919861
 20
-2771.057831
 30
0.0
  0
POINT
  8
0
 62
     7
 10
1227.758800
 20
-2693.571659
 30
0.0
  0
POINT
  8
0
 62
     7
 10
1221.628464
 20
-2658.686867
 30
0.0
  0
POINT
  8
0
 62
     7
 10
1269.946086
 20
-2686.624568
 30
0.0
  0
POINT
  8
0
 62
     7
 10
1258.004669
 20
-2656.161234
 30
0.0
  0
POINT
  8
0
 62
     7
 10
1151.332666
 20
-2580.082650
 30
0.0
  0
ENDSEC
  0
EOF
