  0
SECTION
  2
HEADER
  9
$ACADVER
  1
AC1009
  9
$EXTMIN
 10
-1056.912522
 20
-4356.818531
 30
0.0
  9
$EXTMAX
 10
-547.137298
 20
-3776.881772
 30
0.0
  9
$LIMMIN
 10
-1082.401283
 20
-4385.815369
  9
$LIMMAX
 10
-521.648537
 20
-3747.884934
  0
ENDSEC
  0
SECTION
  2
TABLES
  0
TABLE
  2
LTYPE
 70
     3
  0
LTYPE
  2
CONTINUOUS
 70
     0
  3
Solid Line
 72
    65
 73
     0
 40
0.0
  0
LTYPE
  2
DASHED
 70
     0
  3
_ _ _ _ _
 72
    65
 73
     2
 40
0.75
 49
0.5
 49
-0.25
  0
LTYPE
  2
DOT
 70
     0
  3
. . . . .
 72
    65
 73
     2
 40
1.0
 49
0.0
 49
-1.0
  0
ENDTAB
  0
ENDSEC
  0
SECTION
  2
BLOCKS
  0
ENDSEC
  0
SECTION
  2
ENTITIES
  0
POINT
  8
0
 62
     7
 10
-1053.538119
 20
-3869.873444
 30
0.0
  0
POINT
  8
0
 62
     7
 10
-979.615178
 20
-3842.086790
 30
0.0
  0
POINT
  8
0
 62
     7
 10
-910.668672
 20
-3851.869977
 30
0.0
  0
POINT
  8
0
 62
     7
 10
-750.074870
 20
-3795.015880
 30
0.0
  0
POINT
  8
0
 62
     7
 10
-676.898421
 20
-3809.623375
 30
0.0
  0
POINT
  8
0
 62
     7
 10
-629.517672
 20
-3839.246511
 30
0.0
  0
POINT
  8
0
 62
     7
 10
-592.444116
 20
-3882.687833
 30
0.0
  0
POINT
  8
0
 62
     7
 10
-583.061323
 20
-3934.294790
 30
0.0
  0
POINT
  8
0
 62
     7
 10
-599.379358
 20
-3961.092674
 30
0.0
  0
POINT
  8
0
 62
     7
 10
-567.862759
 20
-3979.362460
 30
0.0
  0
POINT
  8
0
 62
     7
 10
-554.296712
 20
-4068.152203
 30
0.0
  0
POINT
  8
0
 62
     7
 10
-553.411752
 20
-4173.232996
 30
0.0
  0
POINT
  8
0
 62
     7
 10
-613.127577
 20
-4115.923364
 30
0.0
  0
POINT
  8
0
 62
     7
 10
-674.165406
 20
-4131.607492
 30
0.0
  0
POINT
  8
0
 62
     7
 10
-685.783518
 20
-4159.958632
 30
0.0
  0
POINT
  8
0
 62
     7
 10
-680.567989
 20
-4236.528101
 30
0.0
  0
POINT
  8
0
 62
     7
 10
-765.188157
 20
-4265.246828
 30
0.0
  0
POINT
  8
0
 62
     7
 10
-812.463803
 20
-4262.941918
 30
0.0
  0
POINT
  8
0
 62
     7
 10
-815.117724
 20
-4233.614986
 30
0.0
  0
POINT
  8
0
 62
     7
 10
-866.040232
 20
-4271.182948
 30
0.0
  0
POINT
  8
0
 62
     7
 10
-875.467795
 20
-4353.153593
 30
0.0
  0
POINT
  8
0
 62
     7
 10
-900.630101
 20
-4321.781325
 30
0.0
  0
POINT
  8
0
 62
     7
 10
-940.878405
 20
-4317.775953
 30
0.0
  0
POINT
  8
0
 62
     7
 10
-920.273292
 20
-4256.520891
 30
0.0
  0
POINT
  8
0
 62
     7
 10
-955.202349
 20
-4174.279316
 30
0.0
  0
POINT
  8
0
 62
     7
 10
-1018.914246
 20
-4156.765537
 30
0.0
  0
POINT
  8
0
 62
     7
 10
-977.429428
 20
-4021.348806
 30
0.0
  0
POINT
  8
0
 62
     7
 10
-1039.125060
 20
-3989.299342
 30
0.0
  0
POINT
  8
0
 62
     7
 10
-1033.991504
 20
-3970.706625
 30
0.0
  0
POINT
  8
0
 62
     7
 10
-782.878723
 20
-3846.132294
 30
0.0
  0
POINT
  8
0
 62
     7
 10
-796.222090
 20
-3877.731005
 30
0.0
  0
POINT
  8
0
 62
     7
 10
-798.577116
 20
-3907.292236
 30
0.0
  0
POINT
  8
0
 62
     7
 10
-880.764550
 20
-3909.342952
 30
0.0
  0
POINT
  8
0
 62
     7
 10
-897.552035
 20
-3889.367410
 30
0.0
  0
POINT
  8
0
 62
     7
 10
-922.655073
 20
-3891.379872
 30
0.0
  0
POINT
  8
0
 62
     7
 10
-897.263799
 20
-3943.405818
 30
0.0
  0
POINT
  8
0
 62
     7
 10
-755.458821
 20
-3919.770888
 30
0.0
  0
POINT
  8
0
 62
     7
 10
-736.440815
 20
-3888.412196
 30
0.0
  0
POINT
  8
0
 62
     7
 10
-696.416469
 20
-3930.798831
 30
0.0
  0
POINT
  8
0
 62
     7
 10
-698.131492
 20
-4150.838724
 30
0.0
  0
POINT
  8
0
 62
     7
 10
-708.692917
 20
-4078.490483
 30
0.0
  0
POINT
  8
0
 62
     7
 10
-725.071286
 20
-4139.336888
 30
0.0
  0
POINT
  8
0
 62
     7
 10
-746.125595
 20
-4168.701219
 30
0.0
  0
POINT
  8
0
 62
     7
 10
-857.647396
 20
-4159.466809
 30
0.0
  0
POINT
  8
0
 62
     7
 10
-888.168389
 20
-4122.735118
 30
0.0
  0
POINT
  8
0
 62
     7
 10
-910.456546
 20
-4085.123695
 30
0.0
  0
POINT
  8
0
 62
     7
 10
-917.164206
 20
-4029.069152
 30
0.0
  0
POINT
  8
0
 62
     7
 10
-920.413572
 20
-3986.837065
 30
0.0
  0
ENDSEC
  0
EOF
